<svg width="21" height="21" viewBox="0 0 21 21" fill="none" xmlns="http://www.w3.org/2000/svg">
<g id="about icon">
<path id="Vector" d="M10.9077 0.241943C8.92991 0.241943 6.99651 0.828433 5.35202 1.92725C3.70753 3.02606 2.4258 4.58785 1.66892 6.41511C0.912048 8.24237 0.714014 10.253 1.09987 12.1928C1.48572 14.1327 2.43813 15.9145 3.83665 17.313C5.23518 18.7115 7.01701 19.6639 8.95682 20.0498C10.8966 20.4356 12.9073 20.2376 14.7346 19.4807C16.5618 18.7239 18.1236 17.4421 19.2224 15.7976C20.3212 14.1532 20.9077 12.2198 20.9077 10.2419C20.9077 8.92872 20.6491 7.62836 20.1465 6.41511C19.644 5.20185 18.9074 4.09946 17.9788 3.17088C17.0502 2.24229 15.9478 1.5057 14.7346 1.00315C13.5213 0.500601 12.2209 0.241943 10.9077 0.241943ZM10.9077 18.2419C9.32547 18.2419 7.77875 17.7728 6.46316 16.8937C5.14756 16.0146 4.12218 14.7652 3.51668 13.3034C2.91118 11.8416 2.75276 10.2331 3.06144 8.68122C3.37012 7.12937 4.13204 5.70391 5.25086 4.58509C6.36969 3.46627 7.79515 2.70434 9.347 2.39566C10.8988 2.08698 12.5074 2.24541 13.9692 2.85091C15.431 3.45641 16.6804 4.48179 17.5595 5.79738C18.4385 7.11297 18.9077 8.65969 18.9077 10.2419C18.9077 12.3637 18.0649 14.3985 16.5646 15.8988C15.0643 17.3991 13.0295 18.2419 10.9077 18.2419Z" fill="#181725"/>
<path id="Vector_2" d="M10.9077 15.2419C11.46 15.2419 11.9077 14.7942 11.9077 14.2419C11.9077 13.6897 11.46 13.2419 10.9077 13.2419C10.3554 13.2419 9.90771 13.6897 9.90771 14.2419C9.90771 14.7942 10.3554 15.2419 10.9077 15.2419Z" fill="#181725"/>
<path id="Vector_3" d="M10.9077 5.24194C10.6425 5.24194 10.3881 5.3473 10.2006 5.53484C10.0131 5.72237 9.90771 5.97673 9.90771 6.24194V11.2419C9.90771 11.5072 10.0131 11.7615 10.2006 11.949C10.3881 12.1366 10.6425 12.2419 10.9077 12.2419C11.1729 12.2419 11.4273 12.1366 11.6148 11.949C11.8024 11.7615 11.9077 11.5072 11.9077 11.2419V6.24194C11.9077 5.97673 11.8024 5.72237 11.6148 5.53484C11.4273 5.3473 11.1729 5.24194 10.9077 5.24194Z" fill="#181725"/>
</g>
</svg>
