<svg width="102" height="82" viewBox="0 0 102 82" fill="none" xmlns="http://www.w3.org/2000/svg">
<g id="fa:photo" clip-path="url(#clip0_439_2004)">
<path id="Vector" d="M34 23.9167C34 26.7639 33.0083 29.184 31.025 31.1771C29.0417 33.1701 26.6333 34.1667 23.8 34.1667C20.9667 34.1667 18.5583 33.1701 16.575 31.1771C14.5917 29.184 13.6 26.7639 13.6 23.9167C13.6 21.0694 14.5917 18.6493 16.575 16.6562C18.5583 14.6632 20.9667 13.6667 23.8 13.6667C26.6333 13.6667 29.0417 14.6632 31.025 16.6562C33.0083 18.6493 34 21.0694 34 23.9167ZM88.4 44.4167V68.3333H13.6V58.0833L30.6 41L39.1 49.5417L66.3 22.2083L88.4 44.4167ZM93.5 6.83333H8.5C8.03958 6.83333 7.64115 7.00239 7.30469 7.3405C6.96823 7.6786 6.8 8.07899 6.8 8.54167V73.4583C6.8 73.921 6.96823 74.3214 7.30469 74.6595C7.64115 74.9976 8.03958 75.1667 8.5 75.1667H93.5C93.9604 75.1667 94.3589 74.9976 94.6953 74.6595C95.0318 74.3214 95.2 73.921 95.2 73.4583V8.54167C95.2 8.07899 95.0318 7.6786 94.6953 7.3405C94.3589 7.00239 93.9604 6.83333 93.5 6.83333ZM102 8.54167V73.4583C102 75.8073 101.168 77.8181 99.5031 79.4909C97.8385 81.1636 95.8375 82 93.5 82H8.5C6.1625 82 4.16146 81.1636 2.49688 79.4909C0.832292 77.8181 0 75.8073 0 73.4583V8.54167C0 6.19271 0.832292 4.18186 2.49688 2.50911C4.16146 0.836372 6.1625 0 8.5 0H93.5C95.8375 0 97.8385 0.836372 99.5031 2.50911C101.168 4.18186 102 6.19271 102 8.54167Z" fill="#008B51"/>
</g>
<defs>
<clipPath id="clip0_439_2004">
<rect width="102" height="82" fill="white"/>
</clipPath>
</defs>
</svg>
