<svg width="21" height="21" viewBox="0 0 21 21" fill="none" xmlns="http://www.w3.org/2000/svg">
<g id="help icon">
<path id="Help icon" d="M10.9077 0.0202637C8.92991 0.0202637 6.99651 0.606753 5.35202 1.70557C3.70753 2.80438 2.4258 4.36617 1.66892 6.19343C0.912048 8.02069 0.714014 10.0314 1.09987 11.9712C1.48572 13.911 2.43813 15.6928 3.83665 17.0913C5.23518 18.4899 7.01701 19.4423 8.95682 19.8281C10.8966 20.214 12.9073 20.0159 14.7346 19.2591C16.5618 18.5022 18.1236 17.2205 19.2224 15.576C20.3212 13.9315 20.9077 11.9981 20.9077 10.0203C20.9077 8.70704 20.6491 7.40668 20.1465 6.19343C19.644 4.98017 18.9074 3.87778 17.9788 2.9492C17.0502 2.02061 15.9478 1.28402 14.7346 0.781468C13.5213 0.278921 12.2209 0.0202637 10.9077 0.0202637ZM10.9077 18.0203C9.32547 18.0203 7.77875 17.5511 6.46316 16.672C5.14756 15.793 4.12218 14.5435 3.51668 13.0817C2.91118 11.6199 2.75276 10.0114 3.06144 8.45954C3.37012 6.90769 4.13204 5.48223 5.25086 4.36341C6.36969 3.24459 7.79515 2.48266 9.347 2.17398C10.8988 1.8653 12.5074 2.02373 13.9692 2.62923C15.431 3.23473 16.6804 4.26011 17.5595 5.5757C18.4385 6.89129 18.9077 8.43801 18.9077 10.0203C18.9077 12.142 18.0649 14.1768 16.5646 15.6771C15.0643 17.1774 13.0295 18.0203 10.9077 18.0203Z" fill="#181725"/>
<path id="Vector" d="M11.1252 4.02033C10.197 4.02033 9.30675 4.38908 8.65037 5.04546C7.99399 5.70183 7.62524 6.59207 7.62524 7.52033C7.62524 7.78555 7.7306 8.0399 7.91814 8.22744C8.10567 8.41497 8.36003 8.52033 8.62524 8.52033C8.89046 8.52033 9.14481 8.41497 9.33235 8.22744C9.51989 8.0399 9.62524 7.78555 9.62524 7.52033C9.62524 7.22366 9.71322 6.93365 9.87804 6.68698C10.0429 6.4403 10.2771 6.24804 10.5512 6.13451C10.8253 6.02098 11.1269 5.99128 11.4179 6.04915C11.7089 6.10703 11.9761 6.24989 12.1859 6.45967C12.3957 6.66945 12.5385 6.93672 12.5964 7.22769C12.6543 7.51867 12.6246 7.82027 12.5111 8.09436C12.3975 8.36845 12.2053 8.60271 11.9586 8.76754C11.7119 8.93236 11.4219 9.02033 11.1252 9.02033C10.86 9.02033 10.6057 9.12569 10.4181 9.31322C10.2306 9.50076 10.1252 9.75511 10.1252 10.0203V12.0203C10.1252 12.2855 10.2306 12.5399 10.4181 12.7274C10.6057 12.915 10.86 13.0203 11.1252 13.0203C11.3905 13.0203 11.6448 12.915 11.8324 12.7274C12.0199 12.5399 12.1252 12.2855 12.1252 12.0203V10.8603C12.9333 10.6243 13.6289 10.1042 14.0837 9.39577C14.5386 8.68735 14.722 7.8384 14.6002 7.0054C14.4784 6.17239 14.0596 5.41149 13.421 4.86292C12.7824 4.31435 11.9671 4.01511 11.1252 4.02033Z" fill="#181725"/>
<path id="Vector_2" d="M11.1252 16.0203C11.6775 16.0203 12.1252 15.5725 12.1252 15.0203C12.1252 14.468 11.6775 14.0203 11.1252 14.0203C10.573 14.0203 10.1252 14.468 10.1252 15.0203C10.1252 15.5725 10.573 16.0203 11.1252 16.0203Z" fill="#181725"/>
</g>
</svg>
