<svg width="17" height="17" viewBox="0 0 17 17" fill="none" xmlns="http://www.w3.org/2000/svg">
<g id="mdi:instagram">
<path id="Vector" d="M5.52508 1.4165H11.4751C13.7417 1.4165 15.5834 3.25817 15.5834 5.52484V11.4748C15.5834 12.5644 15.1506 13.6094 14.3801 14.3799C13.6097 15.1503 12.5647 15.5832 11.4751 15.5832H5.52508C3.25841 15.5832 1.41675 13.7415 1.41675 11.4748V5.52484C1.41675 4.43524 1.84959 3.39027 2.62005 2.61981C3.39051 1.84935 4.43548 1.4165 5.52508 1.4165ZM5.38341 2.83317C4.70711 2.83317 4.05851 3.10183 3.58029 3.58005C3.10207 4.05827 2.83341 4.70687 2.83341 5.38317V11.6165C2.83341 13.0261 3.97383 14.1665 5.38341 14.1665H11.6167C12.2931 14.1665 12.9417 13.8978 13.4199 13.4196C13.8981 12.9414 14.1667 12.2928 14.1667 11.6165V5.38317C14.1667 3.97359 13.0263 2.83317 11.6167 2.83317H5.38341ZM12.2188 3.89567C12.4537 3.89567 12.6789 3.98896 12.8449 4.155C13.011 4.32105 13.1042 4.54626 13.1042 4.78109C13.1042 5.01591 13.011 5.24112 12.8449 5.40717C12.6789 5.57322 12.4537 5.6665 12.2188 5.6665C11.984 5.6665 11.7588 5.57322 11.5927 5.40717C11.4267 5.24112 11.3334 5.01591 11.3334 4.78109C11.3334 4.54626 11.4267 4.32105 11.5927 4.155C11.7588 3.98896 11.984 3.89567 12.2188 3.89567ZM8.50008 4.95817C9.43939 4.95817 10.3402 5.33131 11.0044 5.9955C11.6686 6.65969 12.0417 7.56053 12.0417 8.49984C12.0417 9.43915 11.6686 10.34 11.0044 11.0042C10.3402 11.6684 9.43939 12.0415 8.50008 12.0415C7.56077 12.0415 6.65994 11.6684 5.99575 11.0042C5.33155 10.34 4.95841 9.43915 4.95841 8.49984C4.95841 7.56053 5.33155 6.65969 5.99575 5.9955C6.65994 5.33131 7.56077 4.95817 8.50008 4.95817ZM8.50008 6.37484C7.9365 6.37484 7.39599 6.59872 6.99748 6.99724C6.59896 7.39575 6.37508 7.93625 6.37508 8.49984C6.37508 9.06342 6.59896 9.60393 6.99748 10.0024C7.39599 10.401 7.9365 10.6248 8.50008 10.6248C9.06367 10.6248 9.60417 10.401 10.0027 10.0024C10.4012 9.60393 10.6251 9.06342 10.6251 8.49984C10.6251 7.93625 10.4012 7.39575 10.0027 6.99724C9.60417 6.59872 9.06367 6.37484 8.50008 6.37484Z" fill="black"/>
</g>
</svg>
