<svg width="17" height="16" viewBox="0 0 17 16" fill="none" xmlns="http://www.w3.org/2000/svg">
<g id="mingcute:telegram-line" clip-path="url(#clip0_423_1694)">
<g id="Group">
<path id="Vector" fill-rule="evenodd" clip-rule="evenodd" d="M15.4699 4.03712C15.5008 3.86067 15.4809 3.67964 15.4122 3.51291C15.3435 3.34618 15.2285 3.19983 15.0793 3.08913C14.93 2.97843 14.752 2.90742 14.5637 2.8835C14.3754 2.85958 14.1837 2.88362 14.0086 2.95312L1.89614 7.75312C1.0518 8.08779 1.00859 9.23712 1.89614 9.58379C2.77498 9.92875 3.66663 10.2441 4.56939 10.5291C5.39672 10.7865 6.29914 11.0245 7.02234 11.0918C7.21997 11.3145 7.46859 11.5285 7.72218 11.7251C8.10964 12.0251 8.57572 12.3338 9.05739 12.6298C10.0221 13.2231 11.0924 13.7905 11.8135 14.1598C12.6756 14.5998 13.7076 14.0931 13.862 13.2085L15.4699 4.03712ZM3.25401 8.66112L13.9668 4.41646L12.4666 12.9765C11.759 12.6145 10.7397 12.0725 9.83159 11.5138C9.41306 11.2609 9.00899 10.9874 8.62105 10.6945C8.51736 10.6147 8.41671 10.5316 8.3193 10.4451L11.125 7.80512C11.2579 7.68012 11.3326 7.51054 11.3327 7.33369C11.3328 7.15685 11.2582 6.98722 11.1254 6.86212C10.9925 6.73703 10.8124 6.66672 10.6245 6.66666C10.4366 6.66659 10.2563 6.73679 10.1234 6.86179L7.05139 9.75312C6.53147 9.69046 5.80755 9.50912 5.0128 9.26246C4.42113 9.07695 3.83418 8.87643 3.25401 8.66112Z" fill="black"/>
</g>
</g>
<defs>
<clipPath id="clip0_423_1694">
<rect width="17" height="16" fill="white"/>
</clipPath>
</defs>
</svg>
