<svg width="21" height="23" viewBox="0 0 21 23" fill="none" xmlns="http://www.w3.org/2000/svg">
<g id="Orders icon">
<path id="Vector" d="M4.90771 1.31348L1.90771 5.31348V19.3135C1.90771 19.8439 2.11843 20.3526 2.4935 20.7277C2.86857 21.1028 3.37728 21.3135 3.90771 21.3135H17.9077C18.4381 21.3135 18.9469 21.1028 19.3219 20.7277C19.697 20.3526 19.9077 19.8439 19.9077 19.3135V5.31348L16.9077 1.31348H4.90771Z" stroke="#181725" stroke-width="2" stroke-linecap="round" stroke-linejoin="round"/>
<path id="Vector_2" d="M1.90771 5.31348H19.9077" stroke="#181725" stroke-width="2" stroke-linecap="round" stroke-linejoin="round"/>
<path id="Vector_3" d="M14.9077 9.31348C14.9077 10.3743 14.4863 11.3918 13.7361 12.1419C12.986 12.892 11.9686 13.3135 10.9077 13.3135C9.84685 13.3135 8.82943 12.892 8.07929 12.1419C7.32914 11.3918 6.90771 10.3743 6.90771 9.31348" stroke="#181725" stroke-width="2" stroke-linecap="round" stroke-linejoin="round"/>
</g>
</svg>
